<mxfile host="app.diagrams.net" modified="2024-05-23T14:38:41.854Z" agent="Mozilla/5.0 (Windows NT 10.0; Win64; x64; rv:126.0) Gecko/20100101 Firefox/126.0" etag="7WdCFNnfjMeUGBBuN7AX" version="24.4.6" type="github">
  <diagram name="Page-1" id="pc6PM3e2iaqK9xveRkoi">
    <mxGraphModel dx="1877" dy="1707" grid="1" gridSize="10" guides="1" tooltips="1" connect="1" arrows="1" fold="1" page="1" pageScale="1" pageWidth="827" pageHeight="1169" math="0" shadow="0">
      <root>
        <mxCell id="0" />
        <mxCell id="1" parent="0" />
        <mxCell id="SHC5wfu7n01j2c97J29x-1" value="Base process" style="shape=process;whiteSpace=wrap;html=1;backgroundOutline=1;" vertex="1" parent="1">
          <mxGeometry x="680" y="320" width="340" height="130" as="geometry" />
        </mxCell>
        <mxCell id="SHC5wfu7n01j2c97J29x-2" value="&lt;div&gt;Fertilizer supply (kg / kg)&lt;/div&gt;&lt;div&gt;Irrigation (mÂ³ / kg)&lt;/div&gt;&lt;div&gt;Pesticide supply (kg / kg)&lt;br&gt;&lt;/div&gt;" style="rounded=0;whiteSpace=wrap;html=1;fillColor=#dae8fc;strokeColor=#6c8ebf;" vertex="1" parent="1">
          <mxGeometry x="520" y="270" width="160" height="110" as="geometry" />
        </mxCell>
        <mxCell id="SHC5wfu7n01j2c97J29x-3" value="&lt;div&gt;land occupation&lt;/div&gt;" style="rounded=0;whiteSpace=wrap;html=1;fillColor=#d5e8d4;strokeColor=#82b366;" vertex="1" parent="1">
          <mxGeometry x="520" y="380" width="160" height="110" as="geometry" />
        </mxCell>
        <mxCell id="SHC5wfu7n01j2c97J29x-4" value="1 kg of crop product" style="rounded=0;whiteSpace=wrap;html=1;fillColor=#dae8fc;strokeColor=#6c8ebf;" vertex="1" parent="1">
          <mxGeometry x="1020" y="270" width="160" height="110" as="geometry" />
        </mxCell>
        <mxCell id="SHC5wfu7n01j2c97J29x-5" value="&lt;div&gt;pest A to soil&lt;/div&gt;&lt;div&gt;pest A to air&lt;/div&gt;&lt;div&gt;pest B to soil&lt;/div&gt;&lt;div&gt;....&lt;/div&gt;&lt;div&gt;&lt;br&gt;&lt;/div&gt;&lt;div&gt;&lt;br&gt;&lt;/div&gt;&lt;div&gt;N2O emissions&lt;/div&gt;&lt;div&gt;NH3 emissions&lt;/div&gt;&lt;div&gt;NO3- emissions&lt;br&gt;&lt;/div&gt;&lt;div&gt;CO2 emissions&lt;/div&gt;&lt;div&gt;&lt;br&gt;&lt;/div&gt;&lt;div&gt;water emissions to air&lt;/div&gt;&lt;div&gt;water emissions to water&lt;br&gt;&lt;/div&gt;" style="rounded=0;whiteSpace=wrap;html=1;fillColor=#d5e8d4;strokeColor=#82b366;" vertex="1" parent="1">
          <mxGeometry x="1020" y="380" width="160" height="250" as="geometry" />
        </mxCell>
        <mxCell id="SHC5wfu7n01j2c97J29x-6" value="Mandatory list" style="swimlane;fontStyle=0;childLayout=stackLayout;horizontal=1;startSize=30;horizontalStack=0;resizeParent=1;resizeParentMax=0;resizeLast=0;collapsible=1;marginBottom=0;whiteSpace=wrap;html=1;" vertex="1" parent="1">
          <mxGeometry x="50" y="-60" width="170" height="120" as="geometry" />
        </mxCell>
        <mxCell id="SHC5wfu7n01j2c97J29x-7" value="lat" style="text;strokeColor=none;fillColor=none;align=left;verticalAlign=middle;spacingLeft=4;spacingRight=4;overflow=hidden;points=[[0,0.5],[1,0.5]];portConstraint=eastwest;rotatable=0;whiteSpace=wrap;html=1;" vertex="1" parent="SHC5wfu7n01j2c97J29x-6">
          <mxGeometry y="30" width="170" height="30" as="geometry" />
        </mxCell>
        <mxCell id="SHC5wfu7n01j2c97J29x-8" value="lon" style="text;strokeColor=none;fillColor=none;align=left;verticalAlign=middle;spacingLeft=4;spacingRight=4;overflow=hidden;points=[[0,0.5],[1,0.5]];portConstraint=eastwest;rotatable=0;whiteSpace=wrap;html=1;" vertex="1" parent="SHC5wfu7n01j2c97J29x-6">
          <mxGeometry y="60" width="170" height="30" as="geometry" />
        </mxCell>
        <mxCell id="SHC5wfu7n01j2c97J29x-9" value="crop" style="text;strokeColor=none;fillColor=none;align=left;verticalAlign=middle;spacingLeft=4;spacingRight=4;overflow=hidden;points=[[0,0.5],[1,0.5]];portConstraint=eastwest;rotatable=0;whiteSpace=wrap;html=1;" vertex="1" parent="SHC5wfu7n01j2c97J29x-6">
          <mxGeometry y="90" width="170" height="30" as="geometry" />
        </mxCell>
        <mxCell id="SHC5wfu7n01j2c97J29x-11" style="edgeStyle=orthogonalEdgeStyle;rounded=0;orthogonalLoop=1;jettySize=auto;html=1;entryX=0.5;entryY=0;entryDx=0;entryDy=0;" edge="1" parent="1" source="SHC5wfu7n01j2c97J29x-10" target="SHC5wfu7n01j2c97J29x-6">
          <mxGeometry relative="1" as="geometry" />
        </mxCell>
        <mxCell id="SHC5wfu7n01j2c97J29x-12" style="edgeStyle=orthogonalEdgeStyle;rounded=0;orthogonalLoop=1;jettySize=auto;html=1;exitX=1;exitY=0.5;exitDx=0;exitDy=0;entryX=0.5;entryY=0;entryDx=0;entryDy=0;" edge="1" parent="1" source="SHC5wfu7n01j2c97J29x-10" target="SHC5wfu7n01j2c97J29x-13">
          <mxGeometry relative="1" as="geometry">
            <mxPoint x="-50" y="120" as="targetPoint" />
          </mxGeometry>
        </mxCell>
        <mxCell id="SHC5wfu7n01j2c97J29x-10" value="UI" style="rounded=1;whiteSpace=wrap;html=1;" vertex="1" parent="1">
          <mxGeometry x="-230" y="-180" width="120" height="60" as="geometry" />
        </mxCell>
        <mxCell id="SHC5wfu7n01j2c97J29x-13" value="Optional list" style="swimlane;fontStyle=0;childLayout=stackLayout;horizontal=1;startSize=30;horizontalStack=0;resizeParent=1;resizeParentMax=0;resizeLast=0;collapsible=1;marginBottom=0;whiteSpace=wrap;html=1;" vertex="1" parent="1">
          <mxGeometry x="-170" y="170" width="170" height="120" as="geometry" />
        </mxCell>
        <mxCell id="SHC5wfu7n01j2c97J29x-14" value="fert input" style="text;strokeColor=none;fillColor=none;align=left;verticalAlign=middle;spacingLeft=4;spacingRight=4;overflow=hidden;points=[[0,0.5],[1,0.5]];portConstraint=eastwest;rotatable=0;whiteSpace=wrap;html=1;" vertex="1" parent="SHC5wfu7n01j2c97J29x-13">
          <mxGeometry y="30" width="170" height="30" as="geometry" />
        </mxCell>
        <mxCell id="SHC5wfu7n01j2c97J29x-15" value="water consumption" style="text;strokeColor=none;fillColor=none;align=left;verticalAlign=middle;spacingLeft=4;spacingRight=4;overflow=hidden;points=[[0,0.5],[1,0.5]];portConstraint=eastwest;rotatable=0;whiteSpace=wrap;html=1;" vertex="1" parent="SHC5wfu7n01j2c97J29x-13">
          <mxGeometry y="60" width="170" height="30" as="geometry" />
        </mxCell>
        <mxCell id="SHC5wfu7n01j2c97J29x-16" value="yield" style="text;strokeColor=none;fillColor=none;align=left;verticalAlign=middle;spacingLeft=4;spacingRight=4;overflow=hidden;points=[[0,0.5],[1,0.5]];portConstraint=eastwest;rotatable=0;whiteSpace=wrap;html=1;" vertex="1" parent="SHC5wfu7n01j2c97J29x-13">
          <mxGeometry y="90" width="170" height="30" as="geometry" />
        </mxCell>
        <mxCell id="SHC5wfu7n01j2c97J29x-37" style="edgeStyle=orthogonalEdgeStyle;rounded=0;orthogonalLoop=1;jettySize=auto;html=1;entryX=0.5;entryY=0;entryDx=0;entryDy=0;" edge="1" parent="1" source="SHC5wfu7n01j2c97J29x-24" target="SHC5wfu7n01j2c97J29x-38">
          <mxGeometry relative="1" as="geometry">
            <mxPoint x="840" y="150" as="targetPoint" />
          </mxGeometry>
        </mxCell>
        <mxCell id="SHC5wfu7n01j2c97J29x-24" value="function get_pest_background" style="shape=document;whiteSpace=wrap;html=1;boundedLbl=1;fontStyle=0;startSize=30;" vertex="1" parent="1">
          <mxGeometry x="520" y="-130" width="120" height="80" as="geometry" />
        </mxCell>
        <mxCell id="SHC5wfu7n01j2c97J29x-27" style="edgeStyle=orthogonalEdgeStyle;rounded=0;orthogonalLoop=1;jettySize=auto;html=1;exitX=1;exitY=0.5;exitDx=0;exitDy=0;entryX=0;entryY=0.5;entryDx=0;entryDy=0;" edge="1" parent="1" source="SHC5wfu7n01j2c97J29x-7" target="SHC5wfu7n01j2c97J29x-24">
          <mxGeometry relative="1" as="geometry" />
        </mxCell>
        <mxCell id="SHC5wfu7n01j2c97J29x-28" style="edgeStyle=orthogonalEdgeStyle;rounded=0;orthogonalLoop=1;jettySize=auto;html=1;exitX=1;exitY=0.5;exitDx=0;exitDy=0;entryX=0;entryY=0.5;entryDx=0;entryDy=0;" edge="1" parent="1" source="SHC5wfu7n01j2c97J29x-8" target="SHC5wfu7n01j2c97J29x-24">
          <mxGeometry relative="1" as="geometry">
            <mxPoint x="330" as="targetPoint" />
          </mxGeometry>
        </mxCell>
        <mxCell id="SHC5wfu7n01j2c97J29x-34" style="edgeStyle=orthogonalEdgeStyle;rounded=0;orthogonalLoop=1;jettySize=auto;html=1;entryX=0;entryY=0.5;entryDx=0;entryDy=0;" edge="1" parent="1" source="SHC5wfu7n01j2c97J29x-30" target="SHC5wfu7n01j2c97J29x-24">
          <mxGeometry relative="1" as="geometry" />
        </mxCell>
        <mxCell id="SHC5wfu7n01j2c97J29x-30" value="function map_crop_pest" style="shape=document;whiteSpace=wrap;html=1;boundedLbl=1;fontStyle=0;startSize=30;" vertex="1" parent="1">
          <mxGeometry x="440" y="30" width="120" height="80" as="geometry" />
        </mxCell>
        <mxCell id="SHC5wfu7n01j2c97J29x-33" style="edgeStyle=orthogonalEdgeStyle;rounded=0;orthogonalLoop=1;jettySize=auto;html=1;entryX=0;entryY=0.5;entryDx=0;entryDy=0;" edge="1" parent="1" source="SHC5wfu7n01j2c97J29x-9" target="SHC5wfu7n01j2c97J29x-30">
          <mxGeometry relative="1" as="geometry" />
        </mxCell>
        <mxCell id="SHC5wfu7n01j2c97J29x-35" value="crop out of max crop list" style="text;html=1;align=center;verticalAlign=middle;whiteSpace=wrap;rounded=0;" vertex="1" parent="1">
          <mxGeometry x="270" y="70" width="60" height="30" as="geometry" />
        </mxCell>
        <mxCell id="SHC5wfu7n01j2c97J29x-36" value="crop available in pest background" style="text;html=1;align=center;verticalAlign=middle;whiteSpace=wrap;rounded=0;" vertex="1" parent="1">
          <mxGeometry x="440" y="-40" width="60" height="30" as="geometry" />
        </mxCell>
        <mxCell id="SHC5wfu7n01j2c97J29x-39" style="edgeStyle=orthogonalEdgeStyle;rounded=0;orthogonalLoop=1;jettySize=auto;html=1;entryX=1;entryY=0.25;entryDx=0;entryDy=0;" edge="1" parent="1" source="SHC5wfu7n01j2c97J29x-38" target="SHC5wfu7n01j2c97J29x-5">
          <mxGeometry relative="1" as="geometry" />
        </mxCell>
        <mxCell id="SHC5wfu7n01j2c97J29x-38" value="function compartmentalize_pest_output" style="shape=document;whiteSpace=wrap;html=1;boundedLbl=1;fontStyle=0;startSize=30;" vertex="1" parent="1">
          <mxGeometry x="780" y="120" width="120" height="80" as="geometry" />
        </mxCell>
        <mxCell id="SHC5wfu7n01j2c97J29x-40" value="function get_fert_background" style="shape=document;whiteSpace=wrap;html=1;boundedLbl=1;fontStyle=0;startSize=30;" vertex="1" parent="1">
          <mxGeometry x="550" y="130" width="120" height="80" as="geometry" />
        </mxCell>
        <mxCell id="SHC5wfu7n01j2c97J29x-41" value="function map_crop_fert" style="shape=document;whiteSpace=wrap;html=1;boundedLbl=1;fontStyle=0;startSize=30;" vertex="1" parent="1">
          <mxGeometry x="380" y="190" width="120" height="80" as="geometry" />
        </mxCell>
        <mxCell id="sGZfh48MMwfw4xDjvNY8-1" value="NEW FUNCTION BY TITOUAN" style="shape=document;whiteSpace=wrap;html=1;boundedLbl=1;fontStyle=0;startSize=30;" vertex="1" parent="1">
          <mxGeometry x="75" y="310" width="120" height="80" as="geometry" />
        </mxCell>
      </root>
    </mxGraphModel>
  </diagram>
</mxfile>
